<svg xmlns="http://www.w3.org/2000/svg" xmlns:xlink="http://www.w3.org/1999/xlink" viewBox="0 0 337.5 384"><defs><clipPath id="a" transform="translate(-0.25)"><rect class="a" width="338" height="384"/></clipPath></defs><g class="b"><path d="M285.25,197.15v-35.9A116.46,116.46,0,0,0,202.75,50V33.75a33.75,33.75,0,0,0-67.5,0V50a116.46,116.46,0,0,0-82.5,111.25v35.9A176.66,176.66,0,0,1,3.38,320a11.25,11.25,0,0,0,8.12,19H113.88a56.26,56.26,0,0,0,110.24,0H326.5a11.25,11.25,0,0,0,8.12-19,176.66,176.66,0,0,1-49.37-122.81ZM157.75,33.75a11.25,11.25,0,0,1,22.5,0v11.8c-3.7-.36-7.45-.55-11.25-.55s-7.55.19-11.25.55ZM169,361.5A33.82,33.82,0,0,1,137.18,339h63.64A33.82,33.82,0,0,1,169,361.5Zm-133.25-45a198.91,198.91,0,0,0,39.5-119.35v-35.9a93.75,93.75,0,0,1,187.5,0v35.9a198.91,198.91,0,0,0,39.5,119.35Z" transform="translate(-0.25)"/></g><path d="M315.25,161.25a11.25,11.25,0,0,0,22.5,0A167.61,167.61,0,0,0,288.32,41.93a11.25,11.25,0,0,0-15.91,15.91,145.24,145.24,0,0,1,42.84,103.41Z" transform="translate(-0.25)"/><path d="M11.5,172.5a11.25,11.25,0,0,0,11.25-11.25A145.24,145.24,0,0,1,65.59,57.84,11.25,11.25,0,0,0,49.68,41.93,167.61,167.61,0,0,0,.25,161.25,11.25,11.25,0,0,0,11.5,172.5Z" transform="translate(-0.25)"/></svg>