<svg xmlns="http://www.w3.org/2000/svg" viewBox="0 0 347.57 248.41"><defs><style>.a{fill-rule:evenodd;}</style></defs><path class="a" d="M334.77,118.72a13.67,13.67,0,0,0,12.8-13.58A28.9,28.9,0,0,0,318.7,76.27H302.86l-7.39-40.14A44.13,44.13,0,0,0,252.07,0H95.5A44.13,44.13,0,0,0,52.1,36.13L44.71,76.27H28.88A28.9,28.9,0,0,0,0,105.14a13.67,13.67,0,0,0,12.8,13.58C.11,131.79,0,150.9,0,150.9v76.27a21.31,21.31,0,0,0,21.25,21.24h30.5A21.31,21.31,0,0,0,73,227.17v-9.26H274.57v9.26a21.31,21.31,0,0,0,21.24,21.24h30.51a21.31,21.31,0,0,0,21.25-21.24V150.9S347.46,131.79,334.77,118.72ZM318.7,88.25a16.93,16.93,0,0,1,16.88,16.89,1.63,1.63,0,0,1-1.63,1.63H311.54l-.4-.26-.43-.29-.38-.32c-.13-.11-.26-.22-.38-.34s-.23-.23-.34-.35-.24-.26-.35-.4l-.29-.37c-.11-.15-.21-.3-.31-.46a4.11,4.11,0,0,1-.24-.39c-.1-.17-.19-.35-.28-.52l-.18-.39c-.09-.2-.16-.42-.24-.63l-.12-.34a8.76,8.76,0,0,1-.25-1l-2.28-12.45ZM12,105.14a16.93,16.93,0,0,1,16.9-16.89H42.5l-2.28,12.37a9.13,9.13,0,0,1-.26,1c0,.1-.07.2-.1.31s-.16.45-.26.67-.11.24-.16.35-.19.39-.3.58l-.21.35c-.11.18-.23.34-.34.51l-.27.34c-.12.15-.25.3-.38.44l-.31.33c-.13.13-.27.25-.41.37l-.36.3c-.13.1-.27.19-.41.28s-.28.2-.43.29H13.62A1.64,1.64,0,0,1,12,105.14Zm323.6,122a9.29,9.29,0,0,1-9.26,9.26H295.81a9.29,9.29,0,0,1-9.26-9.26V211.91a6,6,0,0,0-6-6H67a6,6,0,0,0-6,6v15.26a9.29,9.29,0,0,1-9.27,9.26H21.25A9.29,9.29,0,0,1,12,227.17V150.9s-.19-26.55,23.78-31.34l.17,0a23.51,23.51,0,0,0,3.78-1.22s0,0,0,0A20.89,20.89,0,0,0,52,102.8l3.59-19.45,8.3-45A32.14,32.14,0,0,1,95.5,12H252.07A32.14,32.14,0,0,1,283.68,38.3l8.3,45,3.59,19.53a20.76,20.76,0,0,0,12.24,15.41l.13,0a23.61,23.61,0,0,0,3.68,1.19l.18,0c23.95,4.79,23.78,31.3,23.78,31.34Z"/><path class="a" d="M265.3,183h-183a6,6,0,0,0,0,12h183a6,6,0,1,0,0-12Z"/><path class="a" d="M103.51,156.77v0A21.23,21.23,0,0,0,84.9,135.66l-30.51-3.82a21.25,21.25,0,0,0-23.88,21.09v0A19.19,19.19,0,0,0,49.7,172.15H88.14A15.38,15.38,0,0,0,103.51,156.77Zm-61-3.77v-.07a9.27,9.27,0,0,1,10.41-9.19l30.51,3.81a9.26,9.26,0,0,1,8.11,9.19v0a3.39,3.39,0,0,1-3.38,3.39H49.7A7.21,7.21,0,0,1,42.49,153Z"/><path class="a" d="M293.18,131.84l-30.51,3.82a21.23,21.23,0,0,0-18.61,21.08v0h0a15.38,15.38,0,0,0,15.37,15.38h38.44A19.2,19.2,0,0,0,317.06,153v0A21.25,21.25,0,0,0,293.18,131.84ZM305.07,153a7.2,7.2,0,0,1-7.2,7.2H259.43a3.39,3.39,0,0,1-3.39-3.39v0a9.26,9.26,0,0,1,8.12-9.19l30.5-3.81a9.26,9.26,0,0,1,10.41,9.19Z"/><path class="a" d="M79.21,103.5h189.5a13.62,13.62,0,0,0,13.4-16.06L273.49,40.3a21.25,21.25,0,0,0-20.9-17.42H95.05A21.24,21.24,0,0,0,74.13,40.42l-8.34,47.1A13.61,13.61,0,0,0,79.21,103.5ZM77.59,89.61l8.34-47.1a9.27,9.27,0,0,1,9.12-7.65H252.59a9.27,9.27,0,0,1,9.11,7.6l8.62,47.13a1.64,1.64,0,0,1-1.61,1.93H79.21A1.63,1.63,0,0,1,77.59,89.61Z"/></svg>