<svg xmlns="http://www.w3.org/2000/svg" viewBox="0 0 251.57 187.3"><defs><style>.a{fill:#02151f;}</style></defs><path class="a" d="M50.3,67.38A34.3,34.3,0,0,0,80.9,62c14.32-10.09,18.2-31.74,8.37-46.23A34.37,34.37,0,0,0,64.06.2a35.34,35.34,0,0,0-22.8,5.46c-11.72,7.81-18,23-14.44,36.78A34.67,34.67,0,0,0,50.3,67.38Zm-16.72-36c1.05-11.53,10.56-21.59,22-23.48,14-2.94,28.92,7.44,31.21,21.51,3,13.4-6.39,27.82-19.62,31.06A26.93,26.93,0,0,1,33.58,31.41Z"/><path class="a" d="M169.14,61.5c11.39,11.26,31,12.4,43.61,2.52A33.82,33.82,0,0,0,184.27,4.15a34.61,34.61,0,0,0-19.41,13.1C155.18,30.48,157,50.42,169.14,61.5Zm-2.36-30.36a26.52,26.52,0,0,1,19.85-19.83,26.79,26.79,0,0,1,17.72,2.18,26.53,26.53,0,0,1,14.42,24.06c-.17,10.78-7.6,21.1-17.94,24.36-9.36,3.22-20.56.61-27.28-6.73A25.94,25.94,0,0,1,166.78,31.14Z"/><path class="a" d="M251.54,183.63c-1.76-22-4-44-5.87-66-.75-7.27-.92-14.82-4.14-21.54-5.47-12.51-18.54-21.48-32.3-21.33a34.92,34.92,0,0,0-23,7.76,42.07,42.07,0,0,0-14.39,26.85,46.26,46.26,0,0,1-9.33,23.56c-8,10.21-20.67,16.08-33.42,17.3-9.65-.7-19.57-2.6-27.79-8-10.71-6.68-17.63-18.52-19.47-30.88-.82-6-2-12.15-4.94-17.58-4.58-9.53-13.24-17.25-23.59-19.84A38,38,0,0,0,26.55,77c-12,6.06-19.24,19.18-19.8,32.39Q3.42,146.56,0,183.67a3.67,3.67,0,0,0,4.12,3.55c21.71.07,43.42,0,65.14,0a26.41,26.41,0,0,0,5.15-.54c2-5.91,1.35-12.33,2.28-18.45a87.08,87.08,0,0,0,36.56,15c6,1.41,12,.8,18.05.27,15.77-.72,31.54-5.68,44.37-15,1.4,6,.63,12.53,3.16,18.27,9.75.86,19.57.16,29.35.39,13,0,26.06,0,39.09,0C249.33,187.42,251.9,186,251.54,183.63Zm-120-11.94a11,11,0,0,1-9.38,5.2c-16.16-1.31-32.21-7.08-44.6-17.7A68.11,68.11,0,0,1,58.34,133c-2.25,1.13-4.55,2.12-6.85,3.1a76.5,76.5,0,0,0,18.16,26.13c-.31,5.85-1.09,11.66-1.26,17.52-20.18.08-40.36,0-60.53.05,1.76-19.12,3.55-38.25,5.23-57.38,1.21-9.21.41-19.17,5.31-27.46,5.52-10.19,17.54-15.82,28.92-14.69a29.82,29.82,0,0,1,15.23,6.74c6.79,6,10.6,14.79,11.55,23.7,1.79,14.37,9.25,28.25,21.3,36.54,8.46,6.09,18.75,9,29,10.05C130.89,158.27,134.09,166,131.52,171.69Zm53.23,8.15c-.84-6.5-1.74-13-2.26-19.54-1-2.34-3.37-2.64-5.64-2.26-10.65,9.75-24.75,15.49-39,17.37,3.18-5.93,2.31-13.31-1.22-18.88,13-2.5,25.18-9.73,32.92-20.52a54.4,54.4,0,0,0,9.65-25.33,35.17,35.17,0,0,1,8.65-19.35,27.9,27.9,0,0,1,22.39-9.17,28.86,28.86,0,0,1,24.46,17.17c3.32,6.94,2.7,14.75,3.77,22.17q2.61,29.17,5.25,58.35Q214.25,179.76,184.75,179.84Z"/></svg>