<svg xmlns="http://www.w3.org/2000/svg" width="426.16" height="400.06" viewBox="0 0 426.16 400.06">
  <defs>
    <style>
      .cls-1 {
        fill-rule: evenodd;
      }
    </style>
  </defs>
  <path id="object" class="cls-1" d="M1321.85,1556.34a13.714,13.714,0,0,1,2.27,19.14,13.459,13.459,0,0,1-18.98,2.35,13.708,13.708,0,0,1-2.28-19.14A13.462,13.462,0,0,1,1321.85,1556.34Zm38.69-49.74a13.7,13.7,0,0,1,2.27,19.13,13.448,13.448,0,0,1-18.97,2.35,13.7,13.7,0,0,1-2.28-19.14A13.448,13.448,0,0,1,1360.54,1506.6Zm38.69-49.75a13.705,13.705,0,0,1,2.27,19.14,13.446,13.446,0,0,1-18.97,2.34,13.7,13.7,0,0,1-2.29-19.13A13.462,13.462,0,0,1,1399.23,1456.85Zm38.7-49.76a13.716,13.716,0,0,1,2.27,19.14,13.459,13.459,0,0,1-18.98,2.35,13.708,13.708,0,0,1-2.28-19.14A13.479,13.479,0,0,1,1437.93,1407.09Zm-59.47,193.95a13.718,13.718,0,0,1,2.27,19.15,13.459,13.459,0,0,1-18.99,2.34,13.708,13.708,0,0,1-2.28-19.14A13.483,13.483,0,0,1,1378.46,1601.04Zm38.68-49.74a13.7,13.7,0,0,1,2.28,19.14,13.449,13.449,0,0,1-18.98,2.34,13.688,13.688,0,0,1-2.28-19.13A13.459,13.459,0,0,1,1417.14,1551.3Zm38.69-49.74a13.677,13.677,0,0,1,2.28,19.13,13.447,13.447,0,0,1-18.98,2.34,13.7,13.7,0,0,1-2.28-19.13A13.449,13.449,0,0,1,1455.83,1501.56Zm38.71-49.76a13.708,13.708,0,0,1,2.27,19.14,13.459,13.459,0,0,1-18.99,2.34,13.685,13.685,0,0,1-2.27-19.13A13.46,13.46,0,0,1,1494.54,1451.8Zm-59.47,193.96a13.7,13.7,0,0,1,2.27,19.14,13.449,13.449,0,0,1-18.98,2.34,13.7,13.7,0,0,1-2.28-19.13A13.454,13.454,0,0,1,1435.07,1645.76Zm38.69-49.75a13.709,13.709,0,0,1,2.28,19.14,13.461,13.461,0,0,1-18.99,2.34,13.7,13.7,0,0,1-2.28-19.13A13.47,13.47,0,0,1,1473.76,1596.01Zm38.69-49.74a13.685,13.685,0,0,1,2.27,19.13,13.436,13.436,0,0,1-18.97,2.34,13.7,13.7,0,0,1-2.29-19.13A13.461,13.461,0,0,1,1512.45,1546.27Zm38.7-49.76a13.707,13.707,0,0,1,2.27,19.14,13.459,13.459,0,0,1-18.98,2.35,13.709,13.709,0,0,1-2.28-19.14A13.461,13.461,0,0,1,1551.15,1496.51Zm-59.47,193.96a13.708,13.708,0,0,1,2.28,19.14,13.471,13.471,0,0,1-18.99,2.35,13.709,13.709,0,0,1-2.28-19.14A13.454,13.454,0,0,1,1491.68,1690.47Zm38.69-49.75a13.709,13.709,0,0,1,2.28,19.14,13.44,13.44,0,0,1-18.98,2.34,13.678,13.678,0,0,1-2.28-19.13A13.458,13.458,0,0,1,1530.37,1640.72Zm38.69-49.74a13.707,13.707,0,0,1,2.28,19.14,13.447,13.447,0,0,1-18.98,2.33,13.685,13.685,0,0,1-2.28-19.12A13.441,13.441,0,0,1,1569.06,1590.98Zm38.7-49.76a13.718,13.718,0,0,1,2.28,19.14,13.471,13.471,0,0,1-18.99,2.35,13.7,13.7,0,0,1-2.27-19.14A13.457,13.457,0,0,1,1607.76,1541.22Zm-59.47,193.95a13.689,13.689,0,0,1,2.27,19.14,13.45,13.45,0,0,1-18.98,2.35,13.7,13.7,0,0,1-2.28-19.13A13.465,13.465,0,0,1,1548.29,1735.17Zm38.69-49.74a13.677,13.677,0,0,1,2.27,19.13,13.429,13.429,0,0,1-18.97,2.35,13.686,13.686,0,0,1-2.28-19.13A13.458,13.458,0,0,1,1586.98,1685.43Zm38.69-49.74a13.677,13.677,0,0,1,2.27,19.13,13.436,13.436,0,0,1-18.97,2.34,13.686,13.686,0,0,1-2.28-19.13A13.448,13.448,0,0,1,1625.67,1635.69Zm38.7-49.76a13.7,13.7,0,0,1,2.27,19.14,13.458,13.458,0,0,1-18.98,2.35,13.709,13.709,0,0,1-2.28-19.14A13.462,13.462,0,0,1,1664.37,1585.93Zm-59.47,193.95a13.689,13.689,0,0,1,2.27,19.14,13.431,13.431,0,0,1-18.98,2.35,13.694,13.694,0,0,1-2.27-19.13A13.451,13.451,0,0,1,1604.9,1779.88Zm38.69-49.74a13.7,13.7,0,0,1,2.28,19.14,13.448,13.448,0,0,1-18.98,2.34,13.7,13.7,0,0,1-2.28-19.13A13.45,13.45,0,0,1,1643.59,1730.14Zm38.69-49.75a13.7,13.7,0,0,1,2.28,19.14,13.447,13.447,0,0,1-18.98,2.34,13.7,13.7,0,0,1-2.28-19.13A13.459,13.459,0,0,1,1682.28,1680.39Zm38.7-49.76a13.722,13.722,0,0,1,2.28,19.15,13.451,13.451,0,0,1-18.99,2.34,13.694,13.694,0,0,1-2.27-19.13A13.469,13.469,0,0,1,1720.98,1630.63Z" transform="translate(-1300 -1404.22)"/>
</svg>
