<svg xmlns="http://www.w3.org/2000/svg" xmlns:xlink="http://www.w3.org/1999/xlink" viewBox="0 0 360 324"><defs><style>.a{fill:none;}.b{clip-path:url(#a);}</style><clipPath id="a" transform="translate(0 0)"><rect class="a" width="360" height="324"/></clipPath></defs><g class="b"><path d="M333.55,203.23a24.11,24.11,0,0,0-23-17.23H300a48,48,0,0,0-96,0H193.47a24.13,24.13,0,0,0-23,17.23L145.1,289.41A27,27,0,0,0,171,324H333a27,27,0,0,0,25.88-34.59ZM216,186a36,36,0,0,1,72,0v45.52l-6,6-6-6V186a24,24,0,0,0-48,0v45.52l-6,6-6-6Zm48,0H240a12,12,0,0,1,24,0Zm69,126H171a15,15,0,0,1-14.37-19.21L182,206.61A12.06,12.06,0,0,1,193.47,198H204v36a6,6,0,0,0,1.76,4.24l12,12a6,6,0,0,0,8.48,0l12-12A6,6,0,0,0,240,234V198h24v36a6,6,0,0,0,1.76,4.24l12,12a6,6,0,0,0,8.48,0l12-12A6,6,0,0,0,300,234V198h10.53A12.06,12.06,0,0,1,322,206.61l25.35,86.19A15,15,0,0,1,333,312Z" transform="translate(0 0)"/><path d="M68.81,250.7l3.33-15,11.71,2.6-3.33,15Z" transform="translate(0 0)"/><path d="M1.05,321.39A6,6,0,0,0,6,324H132V312H67.48l5-22.7-11.71-2.6L55.19,312H14.77L94.1,108h6.42l-25,112.7,11.71,2.6L112.81,108H120V210h12V108h7.19l17.62,79.3,11.71-2.6-17-76.7h6.41l24.18,62.18,11.19-4.36-24.88-64L191.69,31.9a6,6,0,0,0-.89-5.5L178.31,9.74a24.36,24.36,0,0,0-38.51-.6L126,26.39,112.19,9.14a24.35,24.35,0,0,0-38.5.6L61.2,26.4a6,6,0,0,0-.89,5.5l23.31,69.94L.41,315.82a6,6,0,0,0,.64,5.57ZM72.69,31.09l10.6-14.15a12.35,12.35,0,0,1,19.53-.3l18.5,23.11a6,6,0,0,0,9.36,0l18.5-23.11a12.35,12.35,0,0,1,19.53.3l10.6,14.15L157.68,96H94.32Z" transform="translate(0 0)"/></g><rect x="120" y="222" width="12" height="72"/></svg>