<svg xmlns="http://www.w3.org/2000/svg" viewBox="0 0 249.11 209.43"><defs><style>.a{fill:#021420;}</style></defs><path class="a" d="M205.08,96.52c-4.74,2.72-10.79,2.07-15.39-.63C183,92.06,178.23,85.69,174.64,79a73.84,73.84,0,0,1-7.95-34.14c-.17-10.37,1.88-21.21,8-29.77,3.16-4.43,8.18-7.93,13.83-7.67,6.75.06,12.17,4.7,16.72,9.2,1.56-1.52,3.26-2.87,4.81-4.39.49-1.7-1.42-2.52-2.31-3.57C202.12,3.26,194.5-.7,186.49.11c-5.74,0-10.75,3.3-14.9,7a140.08,140.08,0,0,1-49.15,22,30.2,30.2,0,0,0-19.63,14.25c-2.32,2.28-5.33,3.88-7.28,6.59a24.53,24.53,0,0,0-3.91,23,24.7,24.7,0,0,0,11.54,12.67c3.37,1.36,5.31,4.63,8.16,6.76L111,93.53c-7.25,5.53-16.5,7.31-25.28,8.86-3.44.77-7.15.53-10.35,2.14-4.38,5.86-9.27,11.32-13.8,17.07-7-4.9-13.59-10.58-20.88-15-11,1.41-22.35,5.2-30.5,13.12C3.05,126.78,0,137,0,146.93c-.28,7.78,2.21,15.25,3.68,22.81,3,12.85,5.43,25.81,8.6,38.62,2.81,1.61,6.13.9,9.21,1q42.51,0,85,0c3.08-.13,6.39.51,9.2-1.11a9.16,9.16,0,0,0,.25-4.52q-4.1-19.9-8.08-39.84c-1.33-7.36-3.52-14.6-4.06-22.06,22.9-7.32,43.57-23.13,54.45-44.86,6.38.31,12.71,1.19,19.05,2,1.89.29,4,.17,5.58,1.51,4.82,3.43,10.67,5.7,16.67,5.23,9.06-.53,16.86-7,20.76-14.91a34.9,34.9,0,0,1-6.06-3.69C211.61,90.58,209.09,94.44,205.08,96.52Zm-50.74-7c-2.86,2.69-3.79,6.79-6.09,10-11.35,18.92-31.32,30.77-51.88,37.37-.38,1-.75,2-1.12,3,4.38,20.62,8.38,41.32,12.68,62-18.11,0-36.23.07-54.34,0-3.94-14.56-8-29.09-12.18-43.59A3.74,3.74,0,0,0,35,156.39c-1.64,1.42-.8,3.74-.33,5.53,3.83,13.25,7.47,26.56,11.2,39.85-8.9.29-17.86-.52-26.71.45-1.42-1.79-1.52-4.14-2.06-6.24q-3.93-18.09-7.88-36.17c-2.63-10.64-2.69-23,4-32.23,6.23-8,16.51-11.75,26.27-13.14,6.32,5.19,13.1,9.82,19.59,14.81,1.27,1.26,3.05,1.25,4.73,1.2,5.61-6.5,10.9-13.27,16.49-19.78,14.53-1.77,30.52-4.71,40.72-16.19,1.79-1.52.87-3.93-.2-5.52a22.62,22.62,0,0,1-9.34-7c-1.45-2.07-4.11-2.4-6.1-3.69C101.25,75.58,98,71,97.85,66a16.36,16.36,0,0,1,7.67-15c3.74-1.64,4.45-6.2,7.51-8.64,5.38-5.77,13.57-6.27,20.67-8.51,9.86-2.84,19.17-7.22,28.36-11.69l.56-1.22c.09,1.81-.74,3.48-1.17,5.23-3.67,13.27-2.93,27.44.52,40.67a68.73,68.73,0,0,0,11.3,23.92C166.94,90.62,160.68,88.88,154.34,89.5Z"/><path class="a" d="M213.43,32.71c8.24-5.48,16.48-11,24.63-16.58-1.46-2-2.89-4.12-4.36-6.14-8.34,5.8-16.85,11.34-25.27,17C210,28.87,210.56,32.8,213.43,32.71Z"/><path class="a" d="M66.42,97.93c16.87-7.76,25.93-28.88,19.64-46.41C80.57,33.75,60.85,22.12,42.64,26A38.27,38.27,0,0,0,14,50.28C9.37,62.8,11.77,77.74,20.49,87.94,31.19,101.23,51.16,105.54,66.42,97.93ZM42.17,33.81A30.73,30.73,0,0,1,71,41.41c9.17,8.48,12,22.79,7,34.18A30.83,30.83,0,0,1,54.32,93.84c-15.38,2.74-31.5-8.5-34.46-23.8C16,54.51,26.73,37.51,42.17,33.81Z"/><path class="a" d="M192.71,62.1c-4.42.91-8.78,2.1-13.17,3.11a49.67,49.67,0,0,0,1.11,7.34c5.37-1.1,10.7-2.4,16-3.83,3.92-1.2,5.84-5.18,7.12-8.74a33,33,0,0,0,0-10c-1.66-5.54-5-11.65-11.21-12.7-5.86-.13-11.64,1.13-17.48,1.37.11,2.6,0,5.27,1,7.74C180,45.28,184,45.48,187.94,45c1.91-.18,4.27-.83,5.62,1,3.4,4.24,4.37,10.66,1.33,15.39Z"/><path class="a" d="M218.1,55.41c10.3-2,20.69-3.45,31-5.32-.38-2.41-.77-4.79-1.12-7.16-10.42,1.2-20.68,3.53-31.09,4.84C217.23,50.31,217.66,52.85,218.1,55.41Z"/><path class="a" d="M214.75,77.55c9.62,2.74,19.1,6.07,28.86,8.34.51-2.4,1.2-4.74,1.81-7.08-9.55-2.64-19-5.58-28.5-8.47C216.1,72.7,215.41,75.11,214.75,77.55Z"/></svg>