<svg xmlns="http://www.w3.org/2000/svg" width="113" height="105.97" viewBox="0 0 113 105.97">
  <metadata><?xpacket begin="﻿" id="W5M0MpCehiHzreSzNTczkc9d"?>
<x:xmpmeta xmlns:x="adobe:ns:meta/" x:xmptk="Adobe XMP Core 5.6-c138 79.159824, 2016/09/14-01:09:01        ">
   <rdf:RDF xmlns:rdf="http://www.w3.org/1999/02/22-rdf-syntax-ns#">
      <rdf:Description rdf:about=""/>
   </rdf:RDF>
</x:xmpmeta>
                                                                                                    
                                                                                                    
                                                                                                    
                                                                                                    
                                                                                                    
                                                                                                    
                                                                                                    
                                                                                                    
                                                                                                    
                                                                                                    
                                                                                                    
                                                                                                    
                                                                                                    
                                                                                                    
                                                                                                    
                                                                                                    
                                                                                                    
                                                                                                    
                                                                                                    
                                                                                                    
                           
<?xpacket end="w"?></metadata>
<defs>
    <style>
      .cls-1 {
        fill: #f0f0f0;
        fill-rule: evenodd;
      }
    </style>
  </defs>
  <path id="object" class="cls-1" d="M1374.84,2989.5a3.616,3.616,0,0,1,.6,5.07,3.565,3.565,0,0,1-5.03.62,3.629,3.629,0,0,1-.61-5.07A3.578,3.578,0,0,1,1374.84,2989.5Zm10.26-13.18a3.628,3.628,0,0,1,.61,5.07,3.586,3.586,0,0,1-5.04.62,3.627,3.627,0,0,1-.6-5.07A3.565,3.565,0,0,1,1385.1,2976.32Zm10.27-13.18a3.636,3.636,0,0,1,.6,5.07,3.574,3.574,0,0,1-5.03.62,3.629,3.629,0,0,1-.61-5.07A3.577,3.577,0,0,1,1395.37,2963.14Zm10.26-13.18a3.617,3.617,0,0,1,.6,5.07,3.564,3.564,0,0,1-5.03.62,3.618,3.618,0,0,1-.6-5.07A3.565,3.565,0,0,1,1405.63,2949.96Zm-15.77,51.38a3.636,3.636,0,0,1,.6,5.07,3.576,3.576,0,0,1-5.04.62,3.636,3.636,0,0,1-.6-5.07A3.576,3.576,0,0,1,1389.86,3001.34Zm10.26-13.18a3.618,3.618,0,0,1,.6,5.07,3.564,3.564,0,0,1-5.03.62,3.629,3.629,0,0,1-.61-5.07A3.577,3.577,0,0,1,1400.12,2988.16Zm10.26-13.18a3.629,3.629,0,0,1,.61,5.07,3.577,3.577,0,0,1-5.04.62,3.627,3.627,0,0,1-.6-5.07A3.565,3.565,0,0,1,1410.38,2974.98Zm10.27-13.18a3.627,3.627,0,0,1,.6,5.07,3.576,3.576,0,0,1-5.04.62,3.636,3.636,0,0,1-.6-5.07A3.576,3.576,0,0,1,1420.65,2961.8Zm-15.78,51.38a3.64,3.64,0,0,1,.61,5.08A3.592,3.592,0,1,1,1404.87,3013.18Zm10.27-13.17a3.634,3.634,0,0,1,.6,5.07,3.574,3.574,0,0,1-5.03.62,3.629,3.629,0,0,1-.61-5.07A3.576,3.576,0,0,1,1415.14,3000.01Zm10.26-13.18a3.617,3.617,0,0,1,.6,5.07,3.573,3.573,0,0,1-5.03.62,3.629,3.629,0,0,1-.61-5.07A3.577,3.577,0,0,1,1425.4,2986.83Zm10.27-13.19a3.649,3.649,0,0,1,.6,5.08,3.577,3.577,0,0,1-5.04.62,3.627,3.627,0,0,1-.6-5.07A3.587,3.587,0,0,1,1435.67,2973.64Zm-15.78,51.39a3.618,3.618,0,0,1,.6,5.07,3.565,3.565,0,0,1-5.03.62,3.629,3.629,0,0,1-.61-5.07A3.577,3.577,0,0,1,1419.89,3025.03Zm10.26-13.18a3.629,3.629,0,0,1,.61,5.07,3.577,3.577,0,0,1-5.04.62,3.627,3.627,0,0,1-.6-5.07A3.565,3.565,0,0,1,1430.15,3011.85Zm10.27-13.18a3.627,3.627,0,0,1,.6,5.07,3.565,3.565,0,0,1-5.03.62,3.628,3.628,0,0,1-.61-5.07A3.577,3.577,0,0,1,1440.42,2998.67Zm10.26-13.18a3.629,3.629,0,0,1,.61,5.07,3.577,3.577,0,0,1-5.04.62,3.618,3.618,0,0,1-.6-5.07A3.564,3.564,0,0,1,1450.68,2985.49Zm-15.77,51.38a3.627,3.627,0,0,1,.6,5.07,3.587,3.587,0,0,1-5.04.63,3.636,3.636,0,0,1-.6-5.07A3.579,3.579,0,0,1,1434.91,3036.87Zm10.26-13.18a3.618,3.618,0,0,1,.6,5.07,3.566,3.566,0,0,1-5.03.63,3.629,3.629,0,0,1-.61-5.07A3.588,3.588,0,0,1,1445.17,3023.69Zm10.26-13.17a3.628,3.628,0,0,1,.61,5.07,3.576,3.576,0,0,1-5.04.61,3.614,3.614,0,0,1-.6-5.06A3.565,3.565,0,0,1,1455.43,3010.52Zm10.27-13.19a3.627,3.627,0,0,1,.6,5.07,3.558,3.558,0,0,1-5.03.63,3.629,3.629,0,0,1-.61-5.07A3.587,3.587,0,0,1,1465.7,2997.33Zm-15.78,51.39a3.629,3.629,0,0,1,.61,5.07,3.577,3.577,0,0,1-5.04.62,3.618,3.618,0,0,1-.6-5.07A3.565,3.565,0,0,1,1449.92,3048.72Zm10.27-13.18a3.627,3.627,0,0,1,.6,5.07,3.565,3.565,0,0,1-5.03.62,3.629,3.629,0,0,1-.61-5.07A3.577,3.577,0,0,1,1460.19,3035.54Zm10.26-13.18a3.618,3.618,0,0,1,.6,5.07,3.564,3.564,0,0,1-5.03.62,3.629,3.629,0,0,1-.61-5.07A3.577,3.577,0,0,1,1470.45,3022.36Zm10.27-13.18a3.636,3.636,0,0,1,.6,5.07,3.577,3.577,0,0,1-5.04.62,3.636,3.636,0,0,1-.6-5.07A3.576,3.576,0,0,1,1480.72,3009.18Z" transform="translate(-1369.06 -2949.19)"/>
</svg>
