<svg xmlns="http://www.w3.org/2000/svg" viewBox="0 0 511.99 512"><path d="M414,398.33a10,10,0,0,0-10,10V482a10,10,0,0,1-10,10H30a10,10,0,0,1-10-10V30A10,10,0,0,1,30,20H394a10,10,0,0,1,10,10V138.75a10,10,0,0,0,20,0V30A30,30,0,0,0,394,0H30A30,30,0,0,0,0,30V482a30,30,0,0,0,30,30H394a30,30,0,0,0,30-30V408.33A10,10,0,0,0,414,398.33Z"/><path d="M304,146a92,92,0,1,0-155.12,66.87,10.31,10.31,0,0,0,1.08,1,91.82,91.82,0,0,0,124.08,0,11.42,11.42,0,0,0,1.08-1A91.75,91.75,0,0,0,304,146Zm-92,72a71.58,71.58,0,0,1-43.49-14.67,50,50,0,0,1,87,0A71.58,71.58,0,0,1,212,218Zm-16-76v-6.5a16,16,0,0,1,32,0V142a16,16,0,0,1-32,0Zm73.94,46.68A69.33,69.33,0,0,0,240.48,164,35.84,35.84,0,0,0,248,142v-6.5a36,36,0,0,0-72,0V142a35.84,35.84,0,0,0,7.52,22,69.33,69.33,0,0,0-29.46,24.69,72,72,0,1,1,115.88,0Z"/><path d="M266,438H212a10,10,0,0,0,0,20h54a10,10,0,0,0,0-20Z"/><path d="M266,382H124a10,10,0,0,0,0,20H266a10,10,0,0,0,0-20Z"/><path d="M266,326H124a10,10,0,0,0,0,20H266a10,10,0,0,0,0-20Z"/><path d="M88.36,272.93A10,10,0,1,0,91.29,280,10.08,10.08,0,0,0,88.36,272.93Z"/><path d="M88.36,328.93A10,10,0,1,0,91.29,336,10.1,10.1,0,0,0,88.36,328.93Z"/><path d="M81.28,382a10,10,0,1,0,7.08,2.93A10.09,10.09,0,0,0,81.28,382Z"/><path d="M266,270H124a10,10,0,0,0,0,20H266a10,10,0,0,0,0-20Z"/><path d="M491,130.32a42,42,0,0,0-57.37,15.37l-125.84,218a9.93,9.93,0,0,0-1.28,3.89l-8.86,79.34a10,10,0,0,0,15.87,9.16l64.29-47.34a10.08,10.08,0,0,0,2.73-3l125.84-218A42,42,0,0,0,491,130.32ZM320.06,426.39,324.68,385l28.94,16.71ZM368.21,387,330.1,365l101-174.91,38.1,22ZM489.05,177.69l-9.86,17.08-38.11-22,9.86-17.08a22,22,0,0,1,38.11,22Z"/></svg>