<svg xmlns="http://www.w3.org/2000/svg" viewBox="0 0 237.61 263.36"><defs><style>.a{fill:#021420;}</style></defs><path class="a" d="M65.64,168.62c.18,3.49,2.45,7.25,6.18,7.73,4.27.78,8.11-2,11-4.83,2-2.23,4.91-3.1,7.35-4.68,5.81-3.65,10.38-8.87,15.08-13.78,12.86-14.89,23.39-31.57,34.09-48,12.95-20.69,25.37-41.73,36.37-63.53,2.06-3.92,0-8.62-3.25-11.18,1.76-3.75,4.27-7.11,6-10.89,1.36-3.75-1.16-7.58-4.38-9.34-5.23-3-10.39-6-15.65-8.89-3-1.74-7.44-1.79-9.75,1.14-2.49,3.31-4.11,7.16-6.37,10.63-3.86-1.46-8.85-.77-11.29,2.81-2.62,3.78-4.89,7.79-7.34,11.68A939.87,939.87,0,0,0,79.39,112c-5.65,12.62-10.88,25.66-12.67,39.47a34.16,34.16,0,0,0,.26,7.82C66.6,162.38,65.35,165.41,65.64,168.62Zm88.3-161c5.89,2.5,11.08,6.36,16.87,9.09-.75,3.6-3.3,6.44-4.82,9.72-5.84-2.88-11.24-6.55-17-9.48C150.44,13.75,152.34,10.76,153.94,7.62ZM119.73,49.31c5.54-9.78,11.08-19.57,17.25-29,1.51-1.59,3.5.38,5,1.08,8.93,5.54,18.5,10.09,27.16,16.06-15,30.66-33.35,59.61-52.17,88.06-4.25-1-7.75-3.72-11.58-5.59-5.74-3-11.42-6.19-17.14-9.24C97.88,89.82,108.57,69.42,119.73,49.31ZM74.41,157.52c-.9-7.55,1.51-15,3.74-22.08,1.83-6.08,4.57-11.81,6.72-17.76,9.2,4.36,17.94,9.69,27.06,14.24A122.88,122.88,0,0,1,92,155.81a35,35,0,0,1-11.64,7.57c-2.34,2-4.3,4.4-7,6C72.43,165.3,75.29,161.56,74.41,157.52Z"/><path class="a" d="M88.1,74.2c9.19-19,19.29-37.67,31.34-55.06,1.07-1.63,2.55-3.36,2-5.45-.5-3-5.06-3.78-6.57-1.13A381.46,381.46,0,0,0,83,67.75c-.68,1.48-1.36,3.13-.61,4.77C83,75.07,86.18,74.17,88.1,74.2Z"/><path class="a" d="M235.65,180.79c-33.29-19.67-66.83-38.94-100-58.74a29.91,29.91,0,0,0-3.71,6.74c28.85,16.75,57.59,33.66,86.38,50.5,2.75,1.53,5.33,3.53,8.44,4.36-4.75,2.94-9.56,5.76-14.38,8.58-36.18,21-72.25,42.15-108.45,63.1q-46.36-26.42-92.76-52.72c12.41-7.14,24.58-14.69,36.93-21.93,3.51-2.28,7.46-4,10.57-6.81-2-1.45-2.61-6.81-5.86-4.73q-25.22,15-50.41,30a4,4,0,0,0-2.1,5.14c1.6,2.13,4.24,3,6.46,4.37q47.51,27.12,95.1,54.06c2.23,1.55,4.69-.17,6.65-1.34Q172,224.3,235.63,187.31C238.24,186.22,238.28,181.85,235.65,180.79Z"/><path class="a" d="M178.14,172a10,10,0,0,0-4.51.95c-1.3-1.18-2.54-2.41-3.69-3.67-3.1-2.06-6.76-.78-10.15-1.35-.93-4.35-5.25-5.94-9.26-5.69l-.88.88c-.93-2.31-2.11-4.61-4.34-5.87a211.67,211.67,0,0,0-19.61-9.75c-2.92-1.21-5.82-3.05-9.1-2.39a6.44,6.44,0,0,0-1.28,5.39l1.36,1.3a245.61,245.61,0,0,1,24.95,11.9c-.85,3-.39,6.25,2.94,7.26a22.69,22.69,0,0,0,5.82-.76c.37,1.18.66,2.42,1,3.68l1.81,1.29c0,.66.16,2,.21,2.63,1.29,1,2.64,2.71,4.59,2,2.68-1.43,4.88-3.76,7.93-4.46-.31,3.45-4.22,5.82-2.45,9.58,1.41.68,2.91,1.5,4.61,1.12,2.26-1.54,3.88-4,6.35-5.2l.24,1c-2.12,5.56-6.07,10.22-10.31,14.31-2,2.08-4.86,3.53-5.94,6.4.44,1.07.89,2.18,1.34,3.31,1.47.25,3.09,1,4.54.12,9-5.09,18.11-10.31,28-13.72,2.47-1.08,6.08-.15,7.67-2.76,1.62-2.17-.25-5.77-3-5.58-6.09,0-11.6,3-17.11,5.25C182.43,183.83,185,175.14,178.14,172Z"/></svg>