<svg xmlns="http://www.w3.org/2000/svg" viewBox="0 0 275.9 199.66"><defs><style>.a{fill:#031520;}</style></defs><path class="a" d="M37,47.52c12.57.83,24-10.28,24.27-22.74C61.7,16.25,57.07,8,50,3.42A24.62,24.62,0,0,0,27.4,2.18,24,24,0,0,0,13.55,22.76C12.75,35.6,24,47.83,37,47.52ZM21.37,20.65A16.82,16.82,0,0,1,32.24,8.31c10-3.92,21.8,4.79,21.48,15.37.34,9.69-9.4,18.13-19,16.25C25.93,38.67,19.47,29.37,21.37,20.65Z"/><path class="a" d="M274.47,115.22a18.86,18.86,0,0,0-12.31-11c-12.8-3.9-25.51-8-38.28-12C215.28,85,206.56,77.91,198,70.71c-6.66-5.36-12.94-11.19-20-16a38.64,38.64,0,0,0-22.06-6.44c-18,0-36-.06-53.94,0-12.15.21-21.26,9.08-30.7,15.5C67.1,55,57.08,50.74,47.68,51c-3.39,2.45-6.77,4.92-9.93,7.65-4-1.95-6.82-5.71-10.85-7.53C18,50.85,8.33,54.57,3.83,62.64-.39,69.93,0,78.6,0,86.74c.11,9,0,18,0,26.94.07,3.94-.48,8.23,1.71,11.76,1.79,3.72,5.75,5.58,9.51,6.71,0,17.54,0,35.07,0,52.6-.16,2.95,1,5.69,2.3,8.3A15.31,15.31,0,0,0,28,199.51c3.8-.07,6.7-2.7,9.72-4.65,7,8.65,22.67,4.84,25.14-6,8.83,4.36,19.77,5.27,28.53.22,8.3-4.18,13.69-12.76,15.17-21.8q42.69.06,85.41,0a30.75,30.75,0,0,0,6.48,14.84A29.23,29.23,0,0,0,231,190.77c9.94-3.59,17.09-13.05,18.6-23.43,3.61-.11,7.29.36,10.88-.35,3.68-1.22,5.68-4.93,8.29-7.58,2.45-3.42,6.87-6,7-10.68.1-3.34,0-6.67.18-10C275.06,130.94,277.11,122.74,274.47,115.22ZM62.12,91.14c-2.4-1.19-5.92-.42-6,2.73-.14,27.6-.06,55.21-.12,82.82,0,3.55.36,7.19-.59,10.67a7.49,7.49,0,0,1-11.29,3.46c-2.44-1.53-2.93-4.46-3.36-7-.28-2.94-4.35-3.52-6.24-1.78-1.4,3-1,7.32-4.46,9-4.62,3.33-11.68-.74-11.37-6.33-.08-18.32,0-36.64,0-54.95,0-1.58-.09-3.59-1.73-4.37-2.85-.63-5.86-.86-8.35-2.53-1.67-3.48-1.19-7.38-1.23-11.09,0-10.33,0-20.65,0-31C7.33,74.21,8.52,67,13.61,62.36c3.18-2.14,6.87-3.13,10.56-4,3.86,2.4,7.24,5.46,10.94,8.1,1.26.92,3.29,1.24,4.55.08,3.7-2.71,7.08-5.86,11.06-8.18,6.1.86,12.16,4.09,14.5,10.11,6.1,15,18.57,26,30.89,36,4.09,4-1,11.19-6.23,9.75-5.86-1.47-10.57-5.61-15.14-9.35A75.09,75.09,0,0,1,62.12,91.14Zm29.22-.4c4.48-6.32,9.41-12.93,16.68-16.19,5.4-.6,10.9-.07,16.33-.22,0,9.69,0,19.38,0,29.08-6.7-.15-13.38,0-20.08-.12C101.64,97.65,95.58,95,91.34,90.74Zm7,78.59a21.33,21.33,0,0,1-14.5,14.85c-7,2.31-14.8.3-20.37-4.32-.09-10.8-.06-21.59,0-32.38,6.12-5.11,15-6.89,22.39-3.62C95.59,147.64,101.46,159.3,98.35,169.33ZM236,178.73a21.44,21.44,0,0,1-21.62,5.41c-9.71-2.91-16.49-13.36-14.85-23.43a21.75,21.75,0,0,1,14-17.22c10-3.89,22.28,1.27,26.61,11A21.36,21.36,0,0,1,236,178.73Zm23.11-49.61a87.84,87.84,0,0,0,9.33.17c0,6.27,0,12.55,0,18.82-3.21,4.19-6.9,8-10.42,11.88-2.83,0-5.67,0-8.49,0-1.26-8.32-5.92-16.22-13.15-20.67-4.54-3.15-10.08-4.31-15.5-4.7-7.12.26-14.26,2.67-19.54,7.56A29.49,29.49,0,0,0,192,160q-42.72,0-85.4,0c-1.48-8.5-6.24-16.71-13.86-21.07-4.4-2.86-9.63-3.88-14.77-4.35-5,.37-10.08,1.26-14.48,3.84q0-16.91.1-33.81a77.14,77.14,0,0,0,19.54,15.16c3.77,2,8.27,2.17,12.4,1.37a13.88,13.88,0,0,0,9.12-10.08c28.46-.25,56.93,0,85.39-.12,4,0,8-3.09,8.33-7.2a8.65,8.65,0,0,0-3.44-8.06C187.57,89.4,180.33,83,172.85,76.91c-3.8-2.91-7.35-6.21-11.69-8.31s-9.51-1.65-14.29-1.72c-13.24.1-26.48-.17-39.7.12-9.33,2.8-16,10.85-21.3,18.61-4-4.65-8.58-9-11-14.79,2.1-1.59,4.16-3.24,6.24-4.87,6.3-4.45,12.8-10,20.94-10,16-.15,31.91,0,47.87-.06,5,0,10.13-.31,15,1.14,6.44,1.58,11.69,5.89,16.73,10q18.54,15.41,37.17,30.72c1.6,1.53,3.86,1.92,5.89,2.62l35.73,11.2c4.41,1.22,7,5.47,8.15,9.67-3.41,1.55-7.37.15-10.94,1.25-.41,1.13-.82,2.27-1.21,3.43C257.16,127,257.56,128.76,259.1,129.12ZM131.76,74.34q9.59-.06,19.19,0a19.21,19.21,0,0,1,7.92,1.39C169,82.77,178,91.27,187.43,99.2c1.29,1.23,3.14,2.17,3.47,4.12-19.71.09-39.4,0-59.12,0C131.72,93.68,131.76,84,131.76,74.34Z"/><path class="a" d="M137.9,119.43c-.42.44-1.28,1.32-1.72,1.76,0,1.6-.51,4,1.18,5a37.48,37.48,0,0,0,10.79.65c1.46-.28,3.32-.26,4.11-1.76s.14-3.06,0-4.53C147.82,118.22,142.65,119.52,137.9,119.43Z"/></svg>