<svg xmlns="http://www.w3.org/2000/svg" viewBox="0 0 512.18 352.18"><path d="M128.18,64h320a32,32,0,0,0,0-64h-320a32,32,0,0,0,0,64Z"/><path d="M1.94,44.32a37.08,37.08,0,0,0,3,5.44,29.36,29.36,0,0,0,4,5,28.18,28.18,0,0,0,4.8,3.84,25.68,25.68,0,0,0,5.44,3A26.3,26.3,0,0,0,25.94,64a28.3,28.3,0,0,0,6.24,0,32,32,0,0,0,22.56-9.28,29.36,29.36,0,0,0,4-5,37.08,37.08,0,0,0,3-5.44,29.48,29.48,0,0,0,2.4-6.08,27.13,27.13,0,0,0,0-6.24,32,32,0,0,0-64,0,27.13,27.13,0,0,0,0,6.24A28.6,28.6,0,0,0,1.94,44.32Z"/><path d="M64.18,169.76a26,26,0,0,0-2.4-5.92,31.6,31.6,0,0,0-3-5.6,23.31,23.31,0,0,0-4-4.8A32,32,0,0,0,.18,176a35.33,35.33,0,0,0,2.4,12.32,36.27,36.27,0,0,0,2.88,5.44,30.7,30.7,0,0,0,4.16,4.8,23.31,23.31,0,0,0,4.8,4,25.68,25.68,0,0,0,5.44,3,27.32,27.32,0,0,0,6.08,1.76,26.72,26.72,0,0,0,6.24.64,27.13,27.13,0,0,0,6.24,0,26,26,0,0,0,5.92-1.76,27.1,27.1,0,0,0,5.6-3,23.31,23.31,0,0,0,4.8-4,23.31,23.31,0,0,0,4-4.8,25.68,25.68,0,0,0,3-5.44,27.08,27.08,0,0,0,2.4-6.72,26.05,26.05,0,0,0,0-6.24A27.13,27.13,0,0,0,64.18,169.76Z"/><path d="M64.18,313.76a27,27,0,0,0-2.4-6.08,37.08,37.08,0,0,0-3-5.44,23.31,23.31,0,0,0-4-4.8,32,32,0,0,0-45.12,0,23.31,23.31,0,0,0-4,4.8,37.08,37.08,0,0,0-3,5.44,26.3,26.3,0,0,0-1.76,6.08A27.27,27.27,0,0,0,.18,320a32,32,0,0,0,9.44,22.56,23.31,23.31,0,0,0,4.8,4,25.68,25.68,0,0,0,5.44,3,27.32,27.32,0,0,0,6.08,1.76,26.72,26.72,0,0,0,6.24.64,27.13,27.13,0,0,0,6.24,0,26,26,0,0,0,5.92-1.76,27.1,27.1,0,0,0,5.6-3,23.31,23.31,0,0,0,4.8-4,23.31,23.31,0,0,0,4-4.8,25.68,25.68,0,0,0,3-5.44,27.08,27.08,0,0,0,2.4-6.72,26.05,26.05,0,0,0,0-6.24A27.13,27.13,0,0,0,64.18,313.76Z"/><path d="M480.18,144h-352a32,32,0,0,0,0,64h352a32,32,0,0,0,0-64Z"/><path d="M336.18,288h-208a32,32,0,0,0,0,64h208a32,32,0,1,0,0-64Z"/></svg>