<svg xmlns="http://www.w3.org/2000/svg" xmlns:xlink="http://www.w3.org/1999/xlink" viewBox="0 0 312 168"><defs><style>.a{fill:none;}.b{clip-path:url(#a);}.c{fill-rule:evenodd;}</style><clipPath id="a"><rect class="a" width="312" height="168"/></clipPath></defs><g class="b"><path class="c" d="M86.3,142.57l39.53,23.72A12,12,0,0,0,144,156V72a72,72,0,1,0-57.7,70.57Zm168,0,39.53,23.72A12,12,0,0,0,312,156V72a72,72,0,1,0-57.7,70.57Zm8.14-23.1a12,12,0,0,0-9.42-1.26A48,48,0,1,1,288,72v62.81l-25.56-15.34Zm-168,0A12,12,0,0,0,85,118.21,48,48,0,1,1,120,72v62.81L94.44,119.47Z"/></g></svg>