<svg xmlns="http://www.w3.org/2000/svg" viewBox="0 0 512 434.78"><path d="M145.55,158.29l27.2-27.2v49.55a8.68,8.68,0,0,0,17.36,0V113.73L282.88,21l37.67,37.67,55.1,55.1V216.3a8.68,8.68,0,0,0,17.36,0V131.09l27.2,27.2A8.68,8.68,0,1,0,432.49,146L382.54,96.07V17.67A8.68,8.68,0,0,0,373.86,9H326.7A8.68,8.68,0,0,0,318,17.67V31.54l-29-29a8.69,8.69,0,0,0-12.28,0L133.27,146a8.68,8.68,0,0,0,12.28,12.28ZM335.38,26.36h29.8V78.7l-29.8-29.8Z"/><path d="M316,214.47a8.68,8.68,0,0,0,8.68-8.68V149.08A8.67,8.67,0,0,0,316,140.4H249.75a8.68,8.68,0,0,0-8.68,8.68v46.29a8.68,8.68,0,0,0,17.36,0V157.76h48.9v48A8.68,8.68,0,0,0,316,214.47Z"/><path d="M505.74,271.75A39.82,39.82,0,0,0,456,256.84a39.74,39.74,0,0,0-72.45-10.94l-46.8,76.69-.32.18a37.06,37.06,0,0,1-24,4.09l-114.52-19.4a15.53,15.53,0,0,1-12.81-16.63A15.45,15.45,0,0,1,203,277l99.43,16.15a35.31,35.31,0,0,0,39.73-26.21,34.36,34.36,0,0,0-26.58-42L156.84,193.13A110.17,110.17,0,0,0,137.35,191c-28.95-.53-56.75,14.56-72.62,39.38A191.28,191.28,0,0,1,4.13,290a8.68,8.68,0,0,0,9.1,14.79,209,209,0,0,0,66.13-65c12.43-19.45,34-31.39,56.5-31.39H137a92,92,0,0,1,16.39,1.77L312.14,242a17,17,0,0,1,13.16,20.76A17.9,17.9,0,0,1,305.19,276l-99.42-16.16A32.82,32.82,0,0,0,195,324.58L309.54,344a54.53,54.53,0,0,0,35.33-6L461.4,273.54a22.39,22.39,0,0,1,22.79,38.52l-150.6,95.18a65.82,65.82,0,0,1-45,9.44l-90-13.6A8.68,8.68,0,0,0,196,420.25l90,13.59a83.07,83.07,0,0,0,56.86-11.92l150.6-95.18a39.75,39.75,0,0,0,12.27-55ZM367.49,305.62,398.4,255a22.39,22.39,0,0,1,41.48,10.65Z"/><path d="M169.24,398.64l-58.51-8.84a46.11,46.11,0,0,0-32.29,7.09l-15,9.87A8.68,8.68,0,1,0,73,421.27l15-9.88A28.79,28.79,0,0,1,108.14,407l58.51,8.84a8.68,8.68,0,1,0,2.59-17.17Z"/></svg>