<svg xmlns="http://www.w3.org/2000/svg" viewBox="0 0 512 512"><path d="M90.05,396a41.72,41.72,0,0,0-20.17,5.15A236.45,236.45,0,0,1,20,256C20,125.87,125.87,20,256,20a237.47,237.47,0,0,1,47,4.68,10,10,0,0,0,4-19.61A258.44,258.44,0,0,0,256,0,256,256,0,0,0,55.09,414.65a42,42,0,1,0,35-18.7ZM105.6,453.5A22,22,0,1,1,112.05,438a21.81,21.81,0,0,1-6.45,15.55Z"/><path d="M456.9,97.34a41.93,41.93,0,1,0-14.78,13.56A236.47,236.47,0,0,1,492,256c0,130.13-105.87,236-236,236a237.49,237.49,0,0,1-46.55-4.59A10,10,0,1,0,205.52,507,258.17,258.17,0,0,0,256,512,256,256,0,0,0,456.9,97.34Zm-50.51-7.73A22,22,0,1,1,422,96.05a21.88,21.88,0,0,1-15.56-6.44Z"/><path d="M214.73,428a10,10,0,0,0,10,10h62.53a10,10,0,0,0,10-10V408.61a156.73,156.73,0,0,0,37.53-15.55l13.69,13.69a10,10,0,0,0,14.14,0l44.2-44.22a10,10,0,0,0,0-14.14L393.15,334.7a156.73,156.73,0,0,0,15.55-37.53H428a10,10,0,0,0,10-10V224.64a10,10,0,0,0-10-10H408.7a156.83,156.83,0,0,0-15.55-37.52l13.6-13.6a10,10,0,0,0,0-14.15l-44.23-44.19a10,10,0,0,0-14.14,0l-13.58,13.58a156.73,156.73,0,0,0-37.53-15.55V84a10,10,0,0,0-10-10H224.73a10,10,0,0,0-10,10v19.21a156.83,156.83,0,0,0-37.52,15.55l-13.59-13.58a10,10,0,0,0-14.14,0l-44.22,44.2a10,10,0,0,0,0,14.14l13.6,13.6a156.83,156.83,0,0,0-15.55,37.52H84a10,10,0,0,0-10,10l0,62.53a10,10,0,0,0,10,10H103.3a156.73,156.73,0,0,0,15.55,37.53l-13.67,13.68a10,10,0,0,0,0,14.14l44.19,44.22a10,10,0,0,0,7.07,2.94h0a10,10,0,0,0,7.07-2.93l13.68-13.69a157.07,157.07,0,0,0,37.53,15.55Zm-33.61-56a10,10,0,0,0-12.5,1.33l-12.17,12.17-30.06-30.08,12.16-12.17a10,10,0,0,0,1.33-12.5,137,137,0,0,1-18.94-45.71,10,10,0,0,0-9.78-7.9H94l0-42.53h17.15a10,10,0,0,0,9.78-7.89A137.15,137.15,0,0,1,139.88,181a10,10,0,0,0-1.33-12.49l-12.08-12.09,30.08-30.06,12.07,12.08a10,10,0,0,0,12.5,1.33,136.79,136.79,0,0,1,45.72-19,10,10,0,0,0,7.89-9.77V94h42.53v17.07a10,10,0,0,0,7.9,9.78,137,137,0,0,1,45.71,18.94,10,10,0,0,0,12.5-1.33l12.07-12.07,30.09,30.06-12.09,12.08a10,10,0,0,0-1.33,12.5,136.94,136.94,0,0,1,18.94,45.72,10,10,0,0,0,9.78,7.89H418v42.53H400.83a10,10,0,0,0-9.78,7.9,136.8,136.8,0,0,1-18.94,45.71,10,10,0,0,0,1.33,12.5l12.17,12.16-30.06,30.09-12.18-12.17a10,10,0,0,0-12.5-1.33A137.22,137.22,0,0,1,285.16,391a10,10,0,0,0-7.9,9.78V418H234.73V400.75a10,10,0,0,0-7.89-9.78A137.06,137.06,0,0,1,181.12,372Z"/><path d="M338.63,256A82.63,82.63,0,1,0,256,338.63,82.73,82.73,0,0,0,338.63,256Zm-145.26,0A62.63,62.63,0,1,1,256,318.63,62.69,62.69,0,0,1,193.37,256Z"/><path d="M348.08,37.82A10,10,0,1,0,341,34.89a10.08,10.08,0,0,0,7.07,2.93Z"/><path d="M164.36,474.36a10,10,0,1,0,7.07,2.93,10.08,10.08,0,0,0-7.07-2.93Z"/></svg>