<svg xmlns="http://www.w3.org/2000/svg" viewBox="0 0 241.55 220.63"><defs><style>.a{fill:#02141f;}</style></defs><path class="a" d="M241.19,112.3a8.85,8.85,0,0,0-8.06-5.53c-22.49-2.53-45-5.11-67.49-7.43-6-15-11.73-30.1-17.59-45.15-.94-2.92-3.46-5-6.15-6.22-5.51-1.8-11.85.76-15,5.55l-2,.55C118.73,43.94,105.54,42,94.62,43c-1.71-2.83-3.56-5.55-5.39-8.28-.63-1.11-1.77-2.41-1-3.73,1.68-5.66,2-12.18-1.07-17.43-2.14-3.61-4.42-7.36-8-9.65C71.49-.83,61.87-.71,53.4,1.39A68.59,68.59,0,0,0,14.66,28c-4.61,6.81-7.81,15.29-6,23.59a31,31,0,0,0,7,11.66c4.06,4.33,10.12,5.69,15.79,6.37,2.08,3.6,4.42,7.05,6.79,10.48C34,87.44,31.41,96,32.7,104.56c-7.68.59-15.34,1.51-23,2.38-4.55.66-9.85,4-9.68,9.15-.34,2.94,1.42,5.54,3.58,7.35,12.12,10.86,24.1,21.88,36.26,32.7.61.79,2.42,1.6,1.52,2.86-5,10.16-10.19,20.22-15.33,30.3-2.05,4-4.09,7.94-6,12-2,4.45-6.09,8.92-4.49,14.11,2.21,4.81,8.36,6.28,13.06,4.56,17.49-6,34.87-12.32,52.34-18.39,6.28-2,12.33-4.78,18.74-6.28,6.5,2.18,12.62,5.46,19,8q18.45,8.06,36.9,16.14c6.62,3.28,16.7-.75,17.35-8.64.88-17.19,1.21-34.48,2.58-51.6,20.35-12.15,40.57-24.5,60.91-36.66C239.91,120.59,242.53,116.34,241.19,112.3ZM34.1,61.88c-4.59.19-9.58-.57-13.07-3.76-3-3.69-6.11-8-5.44-13,.87-5.86,3.84-11.15,7.39-15.8A63.49,63.49,0,0,1,50.71,10C57.57,7.62,65.3,6.37,72.33,8.84c4.4,1.54,7,5.77,9,9.75,2.15,4.87-.3,10-1.75,14.67C83,39.24,87,44.94,90.85,50.69c7.83-.06,16.48-1.65,23.44,3a21.94,21.94,0,0,1,8.77,15.41c-.64,9.34-5.54,17.73-11.68,24.56a76.45,76.45,0,0,1-41.59,23.88c-8,1.46-17.51,1.24-23.71-4.77-3.33-3.76-6.4-8.38-6-13.63-.15-6.55,3.08-12.45,6.29-17.92.63-3.39-2.58-5.75-4-8.5C39.51,69.18,38,64.39,34.1,61.88Zm134.24,93c-1.12,6.33-.83,12.81-1.17,19.22-.85,12.44-1.06,24.91-1.89,37.36-2.28,1.31-5.09,2.11-7.53.77q-27.81-12.15-55.58-24.34a5.94,5.94,0,0,0-4.83-.09Q66,198.88,34.66,209.91c-3.86,1.23-7.6,3.19-11.75,3.13a29.28,29.28,0,0,1,3-6.93q10.81-21.24,21.64-42.48c1.12-2.39,2.86-4.71,2.77-7.46C48.2,152.86,44.77,150.7,42,148,30.43,137.25,18.37,127,7,116.08a13.18,13.18,0,0,1,6.31-2.14c7.58-.52,15.12-1.63,22.69-2.27a24.52,24.52,0,0,0,13.22,11.91c11.14,4.14,23.49,1.86,34.35-2.08,4.66-2,9.57-3.77,13.57-7,5.33,7.24,9.79,15.11,14.75,22.63,1.37,2,2.83,5.43,5.93,4.42l2.35-1.25c.27-1.71.65-3.55-.55-5-5.06-8-10.09-16-15.29-23.91,0-.32-.07-1-.09-1.27A70.24,70.24,0,0,0,125.86,86c3.8-7.37,6-16.13,3.4-24.25,3-2.58,5.18-7.2,9.71-6.94,1.87.51,2.21,2.55,2.89,4.1,5.91,15.5,12.09,30.89,17.91,46.43,2.82,1.46,6.06,1.37,9.15,1.76q22.88,2.58,45.75,5.09c6.58,1.07,13.34,1,19.82,2.61C212.55,128.36,190.29,141.36,168.34,154.89Z"/><path class="a" d="M72.67,24.17c2-3.69-3.12-7-6-4.4-7.39,13.48-22.4,22-37.55,23.09-3.34.76-3.39,6-.19,7,6.51.63,13-1.47,18.91-3.93C57.89,41.31,67.33,34.07,72.67,24.17Z"/><path class="a" d="M56.4,100.18l2.31,1.54c17.73-.86,34.32-10.79,45.43-24.34,2.31-3.74,6.7-7.59,4.86-12.38l-3.24-1.35c-3.46.91-4.16,4.71-6.14,7.2-9.82,13.29-25.41,22.44-42,23.72A5.93,5.93,0,0,0,56.4,100.18Z"/></svg>