<svg xmlns="http://www.w3.org/2000/svg" xmlns:xlink="http://www.w3.org/1999/xlink" viewBox="0 0 360 360"><defs><style>.a{fill:none;}.b{clip-path:url(#a);}</style><clipPath id="a"><rect class="a" width="360" height="360"/></clipPath></defs><g class="b"><path d="M60,312h67l44.49,44.48a12,12,0,0,0,17,0L233,312h67a60.06,60.06,0,0,0,60-60V156a12,12,0,0,0-24,0v96a36,36,0,0,1-36,36H228a12,12,0,0,0-8.48,3.52L180,331l-39.52-39.51A12,12,0,0,0,132,288H60a36,36,0,0,1-36-36V60A36,36,0,0,1,60,24H204a12,12,0,0,0,0-24H60A60.05,60.05,0,0,0,0,60V252a60.05,60.05,0,0,0,60,60Z"/></g><path d="M288,144a12,12,0,0,0,12-12V84h48a12,12,0,0,0,0-24H300V12a12,12,0,0,0-24,0V60H228a12,12,0,0,0,0,24h48v48a12,12,0,0,0,12,12Z"/></svg>