<svg xmlns="http://www.w3.org/2000/svg" xmlns:xlink="http://www.w3.org/1999/xlink" viewBox="0 0 384 383.99"><defs><style>.a{fill:none;}.b{clip-path:url(#a);}</style><clipPath id="a" transform="translate(0 0)"><rect class="a" width="384" height="384"/></clipPath></defs><g class="b"><path d="M45.15,249.79.43,294.51A1.38,1.38,0,0,0,1,296.84L54.87,313.2a23.87,23.87,0,0,1,15.92,15.92L87.16,383a1.38,1.38,0,0,0,2.32.57l59.85-59.85A176.18,176.18,0,0,1,45.15,249.79Z" transform="translate(0 0)"/><path d="M383.57,294.51l-44.72-44.72a176.17,176.17,0,0,1-104.19,73.94l59.86,59.84a1.38,1.38,0,0,0,2.32-.57l16.36-53.88a23.91,23.91,0,0,1,15.92-15.92L383,296.84a1.38,1.38,0,0,0,.57-2.33Z" transform="translate(0 0)"/></g><path d="M345.2,153.2C345.2,68.73,276.48,0,192,0S38.8,68.73,38.8,153.2c0,76.38,56.23,140,129.66,151.4,93,14.47,176.74-57.92,176.74-151.4ZM72.58,190.54C47.32,109.76,108.14,28.11,192,28.11c93.68,0,155.6,100.68,109.94,184.77-52.72,96.71-196.18,83.2-229.36-22.34Z" transform="translate(0 0)"/><path d="M192,50.6A102.73,102.73,0,0,0,89.39,153.2c0,83.23,94.37,131.77,161.94,83.66a103,103,0,0,0,33.85-40.74C316.71,128.26,266.46,50.6,192,50.6Zm51.78,88.21-64,47.48A11.24,11.24,0,0,1,164.9,185c-28.63-30.52-26.34-28.08-27-28.8a11.26,11.26,0,0,1,2.22-17.22,0,0,0,0,1,0,0,11.26,11.26,0,0,1,14.18,1.84c6.05,6.45,2,2.11,20.16,21.49l56.76-42.13A11.24,11.24,0,0,1,247,122.45c3.39,4.54,3.38,11.51-3.17,16.36Z" transform="translate(0 0)"/></svg>